<?xml version="1.0"?>
<svg width="170" height="180" xmlns="http://www.w3.org/2000/svg">

 <g>
  <title>background</title>
  <rect fill="none" id="canvas_background" height="182" width="172" y="-1" x="-1"/>
 </g>
 <g>
  <title>Layer 1</title>
  <g id="svg_1">
   <polygon id="svg_2" points="84.73499381542206,2.125 2.0459976196289062,31.225000381469727 15.112997889518738,139.56100463867188 84.82299888134003,177.875 154.89199149608612,139.04200744628906 167.95400321483612,30.709999084472656 " fill="#FFFFFF"/>
   <polygon id="svg_3" points="159.7060021162033,36.97100067138672 84.54200065135956,11.33899974822998 84.54200065135956,168.7209930419922 147.53299796581268,133.85899353027344 " fill="#ABABAB"/>
   <polygon id="svg_4" points="11.324997782707214,37.43299865722656 22.521998286247253,134.32200622558594 84.54100120067596,168.7209930419922 84.54100120067596,11.336000442504883 " fill="#D4D4D4"/>
   <path id="svg_5" d="m105.231995,95.121002l-20.689995,9.674995l-21.807003,0l-10.250999,25.640007l-19.067001,0.352997l51.125004,-113.735001l20.689995,78.067001zm-2,-4.871002l-18.553001,-36.729l-15.217995,36.096996l15.080002,0l18.690994,0.632004z" fill="#F2F2F2"/>
   <polygon id="svg_6" points="84.54100120067596,17.054000854492188 84.67799460887909,53.520999908447266 101.94599997997284,89.64600372314453 84.57999503612518,89.64600372314453 84.54100120067596,104.77300262451172 108.55399405956268,104.7959976196289 119.77700126171112,130.79299926757812 138.02100455760956,131.13099670410156 " fill="#F2F2F2"/>
  </g>
 </g>
</svg>
